inDegrees=no
num_controls=7
num_derivatives=13
num_iterations=90
num_multipliers=7
num_parameters=0
num_slacks=7
num_states=26
objective=0.453040
objective_accelerations=0.048398
objective_balance=0.001021
objective_effort=0.037585
objective_height=0.360397
objective_ligament=0.005639
solver_duration=1029.329937
status=Solve_Succeeded
success=true
DataType=double
version=3
OpenSimVersion=4.5
endheader
time	/jointset/ground_pelvis/pelvis_tilt/value	/jointset/ground_pelvis/pelvis_tx/value	/jointset/ground_pelvis/pelvis_ty/value	/jointset/hip_r/hip_flexion_r/value	/jointset/hip_r/hip_adduction_r/value	/jointset/hip_r/hip_rotation_r/value	/jointset/back/lumbar_extension/value	/jointset/patellofemoral_r/patellar_flexion_r/value	/jointset/knee_r/knee_flexion_r/value	/jointset/knee_r/knee_adduction_r/value	/jointset/knee_r/knee_rotation_r/value	/jointset/ankle_r/ankle_angle_r/value	/jointset/subtalar_r/subtalar_angle_r/value	/jointset/ground_pelvis/pelvis_tilt/speed	/jointset/ground_pelvis/pelvis_tx/speed	/jointset/ground_pelvis/pelvis_ty/speed	/jointset/hip_r/hip_flexion_r/speed	/jointset/hip_r/hip_adduction_r/speed	/jointset/hip_r/hip_rotation_r/speed	/jointset/back/lumbar_extension/speed	/jointset/patellofemoral_r/patellar_flexion_r/speed	/jointset/knee_r/knee_flexion_r/speed	/jointset/knee_r/knee_adduction_r/speed	/jointset/knee_r/knee_rotation_r/speed	/jointset/ankle_r/ankle_angle_r/speed	/jointset/subtalar_r/subtalar_angle_r/speed	/forceset/tau_hip_flexion_r	/forceset/tau_hip_adduction_r	/forceset/tau_hip_rotation_r	/forceset/tau_knee_flexion_r	/forceset/tau_ankle_angle_r	/forceset/tau_subtalar_angle_r	/forceset/tau_lumbar_extension	lambda_cid13_p0	lambda_cid14_p0	lambda_cid14_p1	lambda_cid14_p2	lambda_cid14_p3	lambda_cid14_p4	lambda_cid14_p5	/jointset/ground_pelvis/pelvis_tilt/accel	/jointset/ground_pelvis/pelvis_tx/accel	/jointset/ground_pelvis/pelvis_ty/accel	/jointset/hip_r/hip_flexion_r/accel	/jointset/hip_r/hip_adduction_r/accel	/jointset/hip_r/hip_rotation_r/accel	/jointset/back/lumbar_extension/accel	/jointset/patellofemoral_r/patellar_flexion_r/accel	/jointset/knee_r/knee_flexion_r/accel	/jointset/knee_r/knee_adduction_r/accel	/jointset/knee_r/knee_rotation_r/accel	/jointset/ankle_r/ankle_angle_r/accel	/jointset/subtalar_r/subtalar_angle_r/accel	gamma_cid13_p0	gamma_cid14_p0	gamma_cid14_p1	gamma_cid14_p2	gamma_cid14_p3	gamma_cid14_p4	gamma_cid14_p5
0	-0.0001957350525908582	0.128038914903184	0.9343029472637782	0.1934211968871041	-0.2168739705792352	-0.2372714161471184	-0.2903787966825928	0.2311786273363399	0.2311786273363406	0.1084025978107386	0.162221332458348	0.089344008118978	0.07783185872675631	0	0	0	0	0	0	0	0	0	0	0	0	0	0.1016332504421057	-0.02055127805946096	0.001929505869141309	-0.2259853845191742	0.1027204032363982	-0.08747699077866858	-0.02415403926758853	-29.52667353946171	-13.61587666480574	-36.23556697860736	1.470304972070143	8.795826914556296	-609.3182130332699	29.60660215102498	-1.772249381748837	-1.942381885032604	-0.8589069616727114	9.983128436582449	0.06623858791771206	1.866840501686252	-6.304514119759759	10.21908743982661	10.21908743982484	-2.817244021671657	0.5850075801402601	2.689879929881537	0.8705241047411226	3.419548155275254e-08	3.259811834346381e-08	-2.418799124983629e-07	2.189214244615044e-07	-4.571930398211585e-09	2.008637402770892e-07	-2.276015228075849e-07
0.01	-0.0002789812157519338	0.1279443227614915	0.9342611813432634	0.1939063682796053	-0.2168690873011901	-0.2371780690397351	-0.2906951158803009	0.2316797602437338	0.231679760243727	0.1082610642320752	0.1622471526342537	0.08947770950298026	0.07787709585615768	-0.0166523481130962	-0.01868949472810034	-0.008333308836836776	0.09649779926860028	0.0009460967795358955	0.01860088754146695	-0.06280506966864567	0.09976741660422643	0.09976741660422338	-0.02811626556484649	0.005114457632401197	0.02678296534164356	0.009024969083121233	0.1027830809516934	-0.03757428474171867	0.001796606831720767	-0.2339326386255866	0.1128724250557104	-0.07692417142730575	-0.02367469133109077	-29.53269261068024	-9.759118015007816	-31.00476775908454	0.6678758557303999	4.011926247108255	-610.9731351250078	41.39225178597152	-1.612198358507096	-1.797894139373606	-0.8175213820332001	9.40263348886506	0.1042083252232704	1.846477123364788	-6.199687909552466	9.786687200576258	9.786687200576781	-2.780270274421196	0.4672713506592228	2.67891411034167	0.9151023998656499	4.188280711208442e-08	1.182981676759049e-08	-2.881377535887769e-07	2.507912852756557e-07	2.052064364856927e-08	5.007365640518231e-08	-2.802019302075767e-07
0.02	-0.0005288450265248209	0.1276697034979831	0.9341366866269115	0.1953404232281653	-0.2168556604348999	-0.2369007602083398	-0.2916257226785232	0.2331647910031306	0.233164791003129	0.1078440775076513	0.1623226386856768	0.08988052239520565	0.07801190649434388	-0.03332352952288435	-0.03600542436316209	-0.01654575916747054	0.1897767112118501	0.001708717649140472	0.03679234480244748	-0.1228575201027199	0.1967795704026765	0.1967795704026743	-0.05509062915089621	0.009933175099567924	0.05382230164472465	0.01791470175696435	0.1039329114612595	-0.05459729142397014	0.001663707794385898	-0.2418798927320086	0.1230244468750226	-0.06637135207593754	-0.02319534339461484	-29.55026325098698	-5.823428817780419	-25.77670532481141	-0.115204003114576	-0.7400828647708645	-611.3600669151062	52.90483755400673	-1.776016041087281	-1.667668866424833	-0.8347352604321121	9.339350971512356	0.02954340593145162	1.784954445588967	-5.753990272845493	9.66803487867133	9.668034878670344	-2.588863625912311	0.5258595470933607	2.741154122169106	0.8434768228855203	4.957013267141629e-08	-8.938484808282824e-09	-3.343955946791909e-07	2.826611460898071e-07	4.561321769535013e-08	-1.007164274667246e-07	-3.328023376075685e-07
0.03	-0.0009450581722127483	0.12722715910401	0.9339304189149538	0.197692829280929	-0.2168354706961919	-0.2364447615752091	-0.2931432941371586	0.2356063927439395	0.2356063927439394	0.1071628838297326	0.162445860582426	0.09055301245085494	0.07823444535064691	-0.04983762356712516	-0.05243694226794785	-0.02470581433731411	0.2802865949034738	0.00232451425651049	0.05431776630425919	-0.1802602633634596	0.2910849730714733	0.2910849730714562	-0.08100464285683723	0.0146551456024016	0.08052264737153185	0.02654619813411795	0.09808180891546681	-0.05310789351635907	0.002023780265369871	-0.2355040842877589	0.1141035803281231	-0.06349317788364761	-0.01843041358819537	-29.5786325738351	-8.528256627648096	-24.85167282679711	-0.4324589088783515	0.6084625791468906	-611.7396321239918	53.77934289492452	-1.57688086746401	-1.620907203809384	-0.8063660647945455	8.844122840876077	0.076897253890732	1.722949558138932	-5.673940113657045	9.243412312735872	9.243412312734488	-2.571174502126385	0.4370116764273361	2.611518624116875	0.8659370386743037	5.616702016450432e-08	-1.661853505359019e-08	-3.654526543036908e-07	3.012147712502797e-07	5.623872800129819e-08	-1.854309454890902e-07	-3.554930236055328e-07
0.04	-0.001523967214615386	0.1266222967407284	0.9336426055673909	0.2009377973251891	-0.21680926309826	-0.2358161860159273	-0.2952229977805941	0.2389773723817866	0.2389773723817855	0.1062268491629056	0.1626146313591139	0.09148791472900886	0.0785418893694303	-0.06586270886623329	-0.06846901822485346	-0.03285488628851889	0.3682891095106496	0.00291228949392279	0.07130773003253707	-0.2352839570629609	0.3826551498103514	0.3826551498103331	-0.1060588269304324	0.01904295108719391	0.1063047461455534	0.03489573425303227	0.09223070636967896	-0.05161849560875734	0.002383852736348981	-0.2291282758435125	0.1051827137812181	-0.06061500369136973	-0.01366548378176511	-29.6165410226239	-11.16046471209614	-23.92885859949323	-0.7323025718952321	1.975325335784475	-610.9621756054079	54.40633874588519	-1.678214292060797	-1.587780476848753	-0.8325386167043571	8.83787715462276	0.02393913193990975	1.677862890882198	-5.278180360597815	9.120989692687616	9.12098969268933	-2.416897699443142	0.4590265434850846	2.557504731612045	0.7870847712376832	6.274142439849455e-08	-2.402872444672096e-08	-3.961962957536357e-07	3.194938348508827e-07	6.656594833320845e-08	-2.687830807104344e-07	-3.775670143168573e-07
0.05	-0.002261232081304135	0.1258594667683647	0.9332730932539481	0.2050505403619625	-0.2167775533203989	-0.2350208453004407	-0.2978407145836707	0.2432506651813783	0.2432506651813742	0.1050450246756425	0.1628260279518382	0.09267647457709043	0.07893128778717637	-0.08151524407850774	-0.08399323161712167	-0.04106315739276473	0.4538022747596083	0.003421674224453213	0.08763347455844962	-0.2878817836292867	0.4715435953584543	0.4715435953584381	-0.1301526548197229	0.02319664128300842	0.1312937990021421	0.0429477243438838	0.08750012988371801	-0.04671435770476396	0.002543353628482447	-0.2264006967494629	0.102564119241247	-0.06155234313306221	-0.009636589003048398	-29.66259845250567	-11.99559039915582	-24.50725076076326	-0.6114422656619698	1.88071246536282	-610.412152172115	52.08179204714985	-1.49751219705275	-1.519166679027322	-0.81736293637002	8.339455278036402	0.0632475294235301	1.59095297535383	-5.193940816279977	8.703787172034973	8.703787172034222	-2.3826420395789	0.3876431889882777	2.45259536064441	0.8087991345095009	5.313598584722449e-08	-3.435052079182963e-08	-3.091396028105425e-07	2.525584412484414e-07	6.689660882660151e-08	-3.552085165791206e-07	-2.932541082040945e-07
